<svg width="176" height="20" viewBox="0 0 176 20" fill="none" xmlns="http://www.w3.org/2000/svg">
<path d="M12.2046 10.6322L5.52941 1H0V19H5.79538V9.36782L12.4654 19H18V1H12.2046V10.6322Z" fill="#03C75A"/>
<path d="M46.3514 15.5098V17.3319H28V15.5098H46.3514ZM37.1757 7.5705C37.06 7.81634 36.7852 8.12726 36.3514 8.50325C35.932 8.87925 35.3536 9.29863 34.6161 9.76139C33.9798 10.1663 33.3073 10.5857 32.5987 11.0195C31.8901 11.4389 31.0803 11.9017 30.1692 12.4078L29.1063 10.7158C29.974 10.2386 30.7693 9.79031 31.4924 9.37093C32.2155 8.95155 32.9385 8.49602 33.6616 8.00434C34.1533 7.67173 34.5582 7.35358 34.8764 7.04989C35.1945 6.7462 35.4403 6.42805 35.6139 6.09544C35.8019 5.76283 35.9248 5.4013 35.9826 5.01085C36.055 4.60593 36.0911 4.13594 36.0911 3.60087V1.40998H38.2603V3.60087C38.2603 4.13594 38.2892 4.60593 38.3471 5.01085C38.4049 5.4013 38.5278 5.77006 38.7158 6.11714C38.9038 6.44975 39.1714 6.77513 39.5184 7.09328C39.8655 7.41142 40.3355 7.76573 40.9284 8.15618C41.6081 8.60448 42.2878 9.02386 42.9675 9.41432C43.6471 9.80477 44.4136 10.2314 45.2668 10.6941L44.2256 12.3644C43.4158 11.9017 42.6276 11.4534 41.8612 11.0195C41.0947 10.5712 40.3861 10.1374 39.7354 9.718C39.0268 9.2697 38.4555 8.86479 38.0217 8.50325C37.5879 8.12726 37.3131 7.81634 37.1974 7.5705H37.1757Z" fill="white"/>
<path d="M47.6563 14.7289V1.80043H57.114V14.7289H47.6563ZM65.4003 9.08894H62.3201V20H60.1726V0H62.3201V7.22343H65.4003V9.08894ZM49.7821 12.885H54.9882V3.64425H49.7821V12.885Z" fill="white"/>
<path d="M81.304 12.2126H67.7899V1.49675H81.0003V3.31887H69.9374V5.96529H80.8484V7.74403H69.9374V10.3905H81.304V12.2126ZM83.6684 15.5098V17.3319H65.317V15.5098H83.6684Z" fill="white"/>
<path d="M102.327 15.5098V17.3319H83.9755V15.5098H102.327ZM93.1512 7.5705C93.0355 7.81634 92.7607 8.12726 92.3269 8.50325C91.9075 8.87925 91.329 9.29863 90.5915 9.76139C89.9552 10.1663 89.2828 10.5857 88.5742 11.0195C87.8656 11.4389 87.0557 11.9017 86.1447 12.4078L85.0817 10.7158C85.9494 10.2386 86.7448 9.79031 87.4679 9.37093C88.1909 8.95155 88.914 8.49602 89.6371 8.00434C90.1287 7.67173 90.5337 7.35358 90.8518 7.04989C91.17 6.7462 91.4158 6.42805 91.5893 6.09544C91.7773 5.76283 91.9003 5.4013 91.9581 5.01085C92.0304 4.60593 92.0666 4.13594 92.0666 3.60087V1.40998H94.2358V3.60087C94.2358 4.13594 94.2647 4.60593 94.3225 5.01085C94.3804 5.4013 94.5033 5.77006 94.6913 6.11714C94.8793 6.44975 95.1468 6.77513 95.4939 7.09328C95.841 7.41142 96.311 7.76573 96.9039 8.15618C97.5836 8.60448 98.2632 9.02386 98.9429 9.41432C99.6226 9.80477 100.389 10.2314 101.242 10.6941L100.201 12.3644C99.3912 11.9017 98.6031 11.4534 97.8366 11.0195C97.0702 10.5712 96.3616 10.1374 95.7108 9.718C95.0022 9.2697 94.431 8.86479 93.9971 8.50325C93.5633 8.12726 93.2885 7.81634 93.1729 7.5705H93.1512Z" fill="white"/>
<path d="M118.165 7.67896H107.233V10.3037H118.621V12.1258H112.873V15.5098H120.985V17.3319H102.634V15.5098H110.747V12.1258H105.107V1.45336H118.317V3.27549H107.233V5.90022H118.165V7.67896Z" fill="white"/>
<path d="M135.869 20V8.9154H132.008V9.41432C132.008 10.3688 131.878 11.2075 131.618 11.9306C131.372 12.6537 131.025 13.2538 130.577 13.731C130.143 14.2082 129.615 14.5698 128.993 14.8156C128.386 15.0615 127.713 15.1844 126.976 15.1844C126.238 15.1844 125.559 15.0615 124.937 14.8156C124.329 14.5698 123.801 14.2082 123.353 13.731C122.919 13.2538 122.572 12.6537 122.312 11.9306C122.066 11.2075 121.943 10.3688 121.943 9.41432V7.15835C121.943 6.20391 122.066 5.36515 122.312 4.64208C122.572 3.91902 122.919 3.31887 123.353 2.84165C123.801 2.34996 124.329 1.9812 124.937 1.73536C125.559 1.48952 126.238 1.36659 126.976 1.36659C127.699 1.36659 128.364 1.48952 128.971 1.73536C129.579 1.96674 130.107 2.32104 130.555 2.79826C131.003 3.27549 131.35 3.8684 131.596 4.57701C131.856 5.28561 131.994 6.10268 132.008 7.0282H135.869V0H138.017V20H135.869ZM126.976 13.2538C127.366 13.2538 127.742 13.1815 128.104 13.0369C128.465 12.8923 128.776 12.6609 129.036 12.3427C129.311 12.0101 129.528 11.5835 129.687 11.0629C129.861 10.5278 129.948 9.87708 129.948 9.11063V7.46204C129.948 6.69559 129.861 6.05206 129.687 5.53145C129.528 4.99639 129.311 4.56978 129.036 4.25163C128.776 3.91902 128.465 3.68041 128.104 3.53579C127.742 3.39118 127.366 3.31887 126.976 3.31887C126.585 3.31887 126.209 3.39118 125.848 3.53579C125.486 3.68041 125.168 3.91902 124.893 4.25163C124.633 4.56978 124.416 4.99639 124.243 5.53145C124.083 6.05206 124.004 6.69559 124.004 7.46204V9.11063C124.004 9.87708 124.083 10.5278 124.243 11.0629C124.416 11.5835 124.633 12.0101 124.893 12.3427C125.168 12.6609 125.486 12.8923 125.848 13.0369C126.209 13.1815 126.585 13.2538 126.976 13.2538Z" fill="white"/>
<path d="M146.09 17.9176H157.435V19.7831H143.942V13.1887H146.09V17.9176ZM144.918 7.8308C144.875 8.00434 144.752 8.21403 144.55 8.45987C144.362 8.70571 144.174 8.92986 143.986 9.13232C143.696 9.46493 143.27 9.89877 142.706 10.4338C142.156 10.9544 141.578 11.4823 140.97 12.0174L139.604 10.564C140.284 9.95662 140.905 9.38539 141.469 8.85032C142.048 8.30079 142.482 7.84526 142.771 7.48373C143.002 7.1945 143.183 6.92697 143.313 6.68113C143.458 6.43529 143.566 6.18944 143.639 5.9436C143.725 5.69776 143.776 5.44469 143.79 5.18438C143.819 4.90962 143.834 4.5987 143.834 4.25163V1.04122H145.916V4.12148C145.916 4.45409 145.931 4.75777 145.96 5.03254C145.989 5.3073 146.039 5.58207 146.111 5.85683C146.198 6.11714 146.314 6.37744 146.458 6.63774C146.618 6.89805 146.82 7.17281 147.066 7.46204C147.413 7.86696 147.825 8.2791 148.302 8.69848C148.78 9.11786 149.278 9.53724 149.799 9.95662L148.454 11.3883C147.962 10.9689 147.507 10.564 147.088 10.1735C146.668 9.78308 146.314 9.44324 146.025 9.15401C145.75 8.87925 145.511 8.63341 145.309 8.41649C145.121 8.18511 144.998 7.98988 144.94 7.8308H144.918ZM153.14 13.731H151.101V6.35575H148.259V4.51193H151.101V0.260304H153.14V13.731ZM154.897 0H156.957V14.2082H154.897V0Z" fill="white"/>
<path d="M162.167 3.44902V7.2885H168.436V9.11063H162.167V13.2104H164.054C165.37 13.2104 166.592 13.1815 167.72 13.1236C168.848 13.0513 169.911 12.9356 170.909 12.7766L171.126 14.5987C170.533 14.6855 169.947 14.765 169.369 14.8373C168.805 14.8952 168.219 14.9385 167.612 14.9675C167.004 14.9964 166.368 15.0181 165.703 15.0325C165.037 15.047 164.314 15.0542 163.533 15.0542H160.041V1.60521H169.195V3.44902H162.167ZM173.208 20V9.11063H169.586V7.24512H173.208V0H175.356V20H173.208Z" fill="white"/>
</svg>
