<svg width="40" height="40" viewBox="0 0 40 40" fill="none" xmlns="http://www.w3.org/2000/svg">
<rect x="0.875" width="40" height="40" rx="20" fill="#C8C8C8"/>
<path fill-rule="evenodd" clip-rule="evenodd" d="M12.874 19.9995C12.874 24.418 16.4559 27.9999 20.8745 27.9999C20.9873 27.9999 21.0995 27.9976 21.2112 27.993L21.2079 27.9996H27.2816C28.2914 27.9996 28.7971 26.7787 28.0831 26.0647L27.0745 25.0562C28.1999 23.678 28.8749 21.9176 28.8749 19.9995C28.8749 15.5809 25.293 11.999 20.8745 11.999C16.4559 11.999 12.874 15.5809 12.874 19.9995ZM18.5611 19.9995C18.5611 20.5886 18.0835 21.0662 17.4943 21.0662C16.9052 21.0662 16.4276 20.5886 16.4276 19.9995C16.4276 19.4103 16.9052 18.9327 17.4943 18.9327C18.0835 18.9327 18.5611 19.4103 18.5611 19.9995ZM21.9411 19.9995C21.9411 20.5886 21.4635 21.0662 20.8744 21.0662C20.2853 21.0662 19.8077 20.5886 19.8077 19.9995C19.8077 19.4103 20.2853 18.9327 20.8744 18.9327C21.4635 18.9327 21.9411 19.4103 21.9411 19.9995ZM25.328 19.9995C25.328 20.5886 24.8505 21.0662 24.2613 21.0662C23.6722 21.0662 23.1946 20.5886 23.1946 19.9995C23.1946 19.4103 23.6722 18.9327 24.2613 18.9327C24.8505 18.9327 25.328 19.4103 25.328 19.9995Z" fill="white"/>
</svg>
