<svg width="20" height="20" viewBox="0 0 20 20" fill="none" xmlns="http://www.w3.org/2000/svg">
<path fill-rule="evenodd" clip-rule="evenodd" d="M9.25 3H5.61061C5.15552 3 4.72791 3.21829 4.46024 3.58724L2.77206 5.91424C2.69665 6.01817 2.63608 6.13118 2.59141 6.25H9.25V3ZM2.5 7.75V15.0556C2.5 16.1294 3.36841 17 4.43966 17L9.25 17V7.75H2.5ZM10.75 17L15.5603 17C16.6316 17 17.5 16.1294 17.5 15.0556V7.75H10.75V17ZM17.4086 6.25H10.75V3H14.3894C14.8445 3 15.2721 3.21829 15.5398 3.58724L17.2279 5.91424C17.3033 6.01817 17.3639 6.13118 17.4086 6.25Z" fill="white"/>
</svg>
