<svg width="20" height="20" viewBox="0 0 20 20" fill="none" xmlns="http://www.w3.org/2000/svg">
<path fill-rule="evenodd" clip-rule="evenodd" d="M5 3C3.89543 3 3 3.89543 3 5V15C3 16.1046 3.89543 17 5 17H15C16.1046 17 17 16.1046 17 15V5C17 3.89543 16.1046 3 15 3H5ZM13.7747 7.23123C14.0751 7.53954 14.0751 8.0394 13.7747 8.34771L9.467 12.7688C9.1666 13.0771 8.67955 13.0771 8.37915 12.7688L6.2253 10.5582C5.9249 10.2499 5.9249 9.75007 6.2253 9.44176C6.5257 9.13346 7.01275 9.13346 7.31315 9.44176L8.92306 11.094L12.6869 7.23123C12.9873 6.92292 13.4743 6.92292 13.7747 7.23123Z" fill="white"/>
</svg>
