<svg width="40" height="40" viewBox="0 0 40 40" fill="none" xmlns="http://www.w3.org/2000/svg">
<rect x="0.125" width="40" height="40" rx="20" fill="#C8C8C8"/>
<path fill-rule="evenodd" clip-rule="evenodd" d="M14.125 12C13.0204 12 12.125 12.8954 12.125 14V26C12.125 27.1046 13.0204 28 14.125 28H26.125C27.2296 28 28.125 27.1046 28.125 26V14C28.125 12.8954 27.2296 12 26.125 12H14.125ZM15.125 16.75C15.125 16.3358 15.4608 16 15.875 16H24.3856C24.7999 16 25.1356 16.3358 25.1356 16.75C25.1356 17.1642 24.7999 17.5 24.3856 17.5H15.875C15.4608 17.5 15.125 17.1642 15.125 16.75ZM15.875 18.8372C15.4608 18.8372 15.125 19.1729 15.125 19.5872C15.125 20.0014 15.4608 20.3372 15.875 20.3372H24.3856C24.7999 20.3372 25.1356 20.0014 25.1356 19.5872C25.1356 19.1729 24.7999 18.8372 24.3856 18.8372H15.875ZM15.875 21.6307C15.4608 21.6307 15.125 21.9665 15.125 22.3807C15.125 22.7949 15.4608 23.1307 15.875 23.1307H19.6575C20.0717 23.1307 20.4075 22.7949 20.4075 22.3807C20.4075 21.9665 20.0717 21.6307 19.6575 21.6307H15.875Z" fill="white"/>
</svg>
