<svg width="20" height="20" viewBox="0 0 20 20" fill="none" xmlns="http://www.w3.org/2000/svg">
<path fill-rule="evenodd" clip-rule="evenodd" d="M17 7.94949C16.3647 8.59777 15.4793 9 14.5 9C12.567 9 11 7.433 11 5.5C11 4.52066 11.4022 3.63526 12.0505 3H5C3.89543 3 3 3.89543 3 5V15C3 16.1046 3.89543 17 5 17H15C16.1046 17 17 16.1046 17 15V7.94949ZM16.9495 3C16.9665 3.01666 16.9833 3.0335 17 3.05051V3H16.9495ZM17 5.5C17 6.88071 15.8807 8 14.5 8C13.1193 8 12 6.88071 12 5.5C12 4.11929 13.1193 3 14.5 3C15.8807 3 17 4.11929 17 5.5ZM5.25 11C5.25 10.5858 5.58579 10.25 6 10.25H11C11.4142 10.25 11.75 10.5858 11.75 11C11.75 11.4142 11.4142 11.75 11 11.75H6C5.58579 11.75 5.25 11.4142 5.25 11ZM5.25 14C5.25 13.5858 5.58579 13.25 6 13.25H11C11.4142 13.25 11.75 13.5858 11.75 14C11.75 14.4142 11.4142 14.75 11 14.75H6C5.58579 14.75 5.25 14.4142 5.25 14Z" fill="white"/>
</svg>
