<svg width="40" height="40" viewBox="0 0 40 40" fill="none" xmlns="http://www.w3.org/2000/svg">
<rect x="0.375" width="40" height="40" rx="20" fill="#C8C8C8"/>
<path fill-rule="evenodd" clip-rule="evenodd" d="M14.041 12C12.9364 12 12.041 12.8954 12.041 14V26C12.041 27.1046 12.9364 28 14.041 28H26.041C27.1456 28 28.041 27.1046 28.041 26V14C28.041 12.8954 27.1456 12 26.041 12H14.041ZM18.706 17.6346H17.4533V24.2087H15.3176V17.6346H14.041V16H18.706V17.6346ZM18.8838 24.2087H21.0194V16H18.8838V24.2087ZM25.7305 20.3907C25.9373 20.1282 26.0407 19.6669 26.0407 19.0067V18.2908C26.0407 17.6545 26.0009 17.2289 25.9214 17.0142C25.8418 16.7914 25.6986 16.5926 25.4918 16.4176C25.285 16.2426 25.0464 16.1312 24.776 16.0835C24.5056 16.0278 24.1118 16 23.5948 16H21.4473V24.2087H23.5829V20.9157H24.1556C24.9351 20.9157 25.46 20.7407 25.7305 20.3907ZM24.251 18.088V18.7442C24.251 19.0305 24.2152 19.2294 24.1436 19.3407C24.08 19.4441 23.9448 19.4958 23.738 19.4958H23.5829V17.4079C23.8613 17.4079 24.0402 17.4516 24.1198 17.5391C24.2073 17.6187 24.251 17.8016 24.251 18.088Z" fill="white"/>
</svg>
