<svg width="20" height="20" viewBox="0 0 20 20" fill="none" xmlns="http://www.w3.org/2000/svg">
<path fill-rule="evenodd" clip-rule="evenodd" d="M5 3C3.89543 3 3 3.89543 3 5V15C3 16.1046 3.89543 17 5 17H15C16.1046 17 17 16.1046 17 15V5C17 3.89543 16.1046 3 15 3H5ZM10.25 6C10.25 5.58579 9.91421 5.25 9.5 5.25C9.08579 5.25 8.75 5.58579 8.75 6V11V11.4352L9.1279 11.6512L12.6279 13.6512C12.9875 13.8567 13.4457 13.7317 13.6512 13.3721C13.8567 13.0125 13.7317 12.5543 13.3721 12.3488L10.25 10.5648V6Z" fill="white"/>
</svg>
