<svg width="20" height="20" viewBox="0 0 20 20" fill="none" xmlns="http://www.w3.org/2000/svg">
<path d="M18.7643 9.91455H16.235C15.8907 9.91455 15.6278 9.61179 15.666 9.26509L15.9577 6.66725C15.972 6.52075 16.0963 6.40844 16.2398 6.40844H17.2916L17.0526 5.842C16.8996 5.47576 16.5458 5.24137 16.1585 5.24137H14.8675L15.0253 3.84479C15.0779 3.39554 14.7289 3 14.2842 3H3.14863C2.65616 3 2.24019 3.376 2.18281 3.87897L1.00662 14.2606C0.939678 14.8514 1.38912 15.369 1.97244 15.369H3.22991C3.52157 16.3164 4.38698 17 5.41017 17C6.43336 17 7.29877 16.3164 7.59043 15.369H11.8075C12.0992 16.3164 12.9646 17 13.9878 17C15.011 17 15.8764 16.3164 16.168 15.369H17.6502C18.1427 15.369 18.5587 14.993 18.616 14.4901L18.9842 11.2574C19.032 10.8521 18.9699 10.4419 18.8169 10.0708L18.7547 9.91943L18.7643 9.91455ZM12.3669 12.6052H10.4114L8.05422 9.15766V12.6052H6.00783V6.16429H7.96337L10.3205 9.61179V6.16429H12.3669V12.6052Z" fill="white"/>
</svg>
