<svg width="40" height="40" viewBox="0 0 40 40" fill="none" xmlns="http://www.w3.org/2000/svg">
<rect x="0.625" width="40" height="40" rx="20" fill="#C8C8C8"/>
<path d="M14.3564 13.1177C14.5958 12.4474 15.2307 12 15.9425 12H25.9759C26.6876 12 27.3225 12.4474 27.5619 13.1177L28.6683 16.2153C28.8545 16.6025 28.959 17.0378 28.959 17.4979C28.959 19.1111 27.6744 20.4189 26.0898 20.4189C24.9678 20.4189 23.9961 19.7632 23.5245 18.8075C23.0529 19.7632 22.0813 20.4189 20.9592 20.4189C19.8369 20.4189 18.8652 19.763 18.3937 18.8071C17.9221 19.763 16.9504 20.4189 15.8281 20.4189C14.2435 20.4189 12.959 19.1111 12.959 17.4979C12.959 17.0365 13.064 16.6001 13.2511 16.2122L14.3564 13.1177Z" fill="white"/>
<path fill-rule="evenodd" clip-rule="evenodd" d="M13.959 22.5296V24V25.4793V26C13.959 27.1046 14.8544 28 15.959 28H25.959C27.0636 28 27.959 27.1046 27.959 26V25.4793V24V22.5296C27.4417 22.7278 26.8797 22.8365 26.2903 22.8365C25.2971 22.8365 24.3807 22.5259 23.6247 22.0002C22.8688 22.5259 21.9524 22.8365 20.9592 22.8365C19.9659 22.8365 19.0495 22.5259 18.2935 22C17.5374 22.5259 16.621 22.8365 15.6277 22.8365C15.0382 22.8365 14.4763 22.7278 13.959 22.5296Z" fill="white"/>
</svg>
